<svg id="Layer_1" data-name="Layer 1" xmlns="http://www.w3.org/2000/svg" viewBox="0 0 96 96"><path d="M93,92.14H3a1,1,0,0,1,0-2H93a1,1,0,0,1,0,2Z"/><path d="M25.26,92.14H13.89a1,1,0,0,1-1-1V68.91a1,1,0,0,1,1-1H25.26a1,1,0,0,1,1,1V91.14A1,1,0,0,1,25.26,92.14Zm-10.37-2h9.37V69.91H14.89Z"/><path d="M44.21,92.14H32.84a1,1,0,0,1-1-1V40.7a1,1,0,0,1,1-1H44.21a1,1,0,0,1,1,1V91.14A1,1,0,0,1,44.21,92.14Zm-10.37-2h9.37V41.7H33.84Z"/><path d="M63.16,92.14H51.79a1,1,0,0,1-1-1v-40a1,1,0,0,1,1-1H63.16a1,1,0,0,1,1,1v40A1,1,0,0,1,63.16,92.14Zm-10.37-2h9.37v-38H52.79Z"/><path d="M82.11,92.14H70.74a1,1,0,0,1-1-1V26.24a1,1,0,0,1,1-1H82.11a1,1,0,0,1,1,1v64.9A1,1,0,0,1,82.11,92.14Zm-10.37-2h9.37V27.24H71.74Z"/><path d="M60.44,27a1,1,0,0,1-.7-1.71L73.81,11.31a1,1,0,1,1,1.4,1.42l-14.07,14A1,1,0,0,1,60.44,27Z"/><path d="M53.85,27.77a1.06,1.06,0,0,1-.51-.14L41.72,20.76a1,1,0,1,1,1-1.72l11.62,6.87a1,1,0,0,1,.35,1.37A1,1,0,0,1,53.85,27.77Z"/><path d="M18.72,36.1a1,1,0,0,1-.76-.36,1,1,0,0,1,.12-1.41L34.9,20.16a1,1,0,0,1,1.28,1.53L19.36,35.86A1,1,0,0,1,18.72,36.1Z"/><path d="M15.83,43.44a5.24,5.24,0,1,1,5.24-5.24A5.25,5.25,0,0,1,15.83,43.44Zm0-8.48a3.24,3.24,0,1,0,3.24,3.24A3.24,3.24,0,0,0,15.83,35Z"/><path d="M38.5,23.13a5.25,5.25,0,1,1,5.24-5.24A5.25,5.25,0,0,1,38.5,23.13Zm0-8.49a3.25,3.25,0,1,0,3.24,3.25A3.26,3.26,0,0,0,38.5,14.64Z"/><path d="M57.46,34.22A5.24,5.24,0,1,1,62.71,29,5.25,5.25,0,0,1,57.46,34.22Zm0-8.48A3.24,3.24,0,1,0,60.71,29,3.24,3.24,0,0,0,57.46,25.74Z"/><path d="M77.61,14.35a5.25,5.25,0,1,1,5.24-5.24A5.25,5.25,0,0,1,77.61,14.35Zm0-8.49a3.25,3.25,0,1,0,3.24,3.25A3.26,3.26,0,0,0,77.61,5.86Z"/></svg>